<?xml version="1.0" encoding="UTF-8"?>
<svg id="Group_707" xmlns="http://www.w3.org/2000/svg" width="631.9" height="110.9" version="1.1" viewBox="0 0 631.9 110.9">
  <!-- Generator: Adobe Illustrator 29.3.0, SVG Export Plug-In . SVG Version: 2.1.0 Build 146)  -->
  <defs>
    <style>
      .st0 {
        fill: #211e1f;
      }

      .st1, .st2, .st3 {
        fill-rule: evenodd;
      }

      .st1, .st4 {
        fill: #0da54c;
      }

      .st2, .st5 {
        fill: #eee1c4;
      }

      .st6 {
        fill: #d3202e;
      }

      .st7, .st3 {
        fill: #fff;
      }

      .st8 {
        fill: none;
      }

      .st9 {
        fill: #e72429;
      }

      .st10 {
        fill: #d6c48f;
      }

      .st11 {
        fill: #e4e5e5;
      }

      .st12 {
        fill: #857e6e;
      }
    </style>
  </defs>
  <rect id="Rectangle_106" class="st11" x="199" width="432.9" height="110.9"/>
  <rect id="Rectangle_107" class="st6" width="198.9" height="110.9"/>
  <path id="Path_98" class="st7" d="M78.6,59.7h8.2l-4-12.7h0l-4.1,12.7M91.3,73.2l-2.2-6.5h-12.6l-2.3,6.5h-9.7l10.7-28.7h-11.9s0,13.7,0,13.7c0,10.5-4.8,15.7-15.8,15.7s-15.8-5.2-15.8-15.7v-21.3h9.5v21.8c0,4.7,1.7,7.1,6.3,7.1s6.3-2.4,6.3-7.1v-21.8h33.8l10,28.7h4.5s0-28.7,0-28.7h28.9v7.6h-19.5v6.3h17.8v7.3h-17.8v6.9h20v8.1h-40.3ZM167.3,58.2c0,10.5-4.8,15.7-15.8,15.7s-15.8-5.2-15.8-15.7v-21.3h9.4v21.8c0,4.7,1.7,7.1,6.3,7.1s6.3-2.4,6.3-7.1v-21.8h9.5v21.3Z"/>
  <g id="Group_53">
    <g id="Group_51">
      <path id="Path_99" class="st12" d="M231.1,42.8c0-.8.1-1.5.4-2.2.2-.6.6-1.2,1.1-1.7.5-.5,1-.8,1.6-1,.7-.2,1.4-.4,2.2-.4.7,0,1.4.1,2,.4.5.3,1,.6,1.4,1.1.4.5.7,1.1.8,1.7.2.7.3,1.4.3,2.1v5.1h-4.3c-3.6,0-5.4-1.7-5.4-5.1M234,36.2c-.4,0-.8-.2-1.1-.5-.3-.3-.5-.7-.4-1.1,0-.4.2-.8.4-1.1.3-.3.7-.5,1.1-.5.4,0,.8.2,1.1.5.3.3.4.7.4,1.1,0,.4-.1.8-.4,1.1-.3.3-.7.5-1.1.5M238,45.6v-3.2c0-.7-.1-1.4-.5-2-.3-.5-.9-.7-1.4-.7-.6,0-1.1.3-1.5.7-.4.6-.6,1.3-.6,2,0,.9.1,1.7.6,2.5.6.6,1.4.8,2.2.7h1.1ZM238,36.2c-.4,0-.8-.2-1.1-.5-.3-.3-.4-.7-.4-1.1,0-.4.2-.8.4-1.1.3-.3.7-.5,1.1-.5.4,0,.8.2,1.1.5.3.3.4.7.4,1.1,0,.4-.1.8-.4,1.1-.3.3-.7.5-1.1.5"/>
      <path id="Path_100" class="st12" d="M268.3,36.2c-.4,0-.8-.2-1.1-.5-.3-.3-.4-.7-.4-1.1,0-.4.2-.8.4-1.1.3-.3.7-.5,1.1-.5.4,0,.8.2,1.1.5.3.3.4.7.4,1.1,0,.4-.1.8-.4,1.1-.3.3-.7.5-1.1.5M272.2,36.2c-.4,0-.8-.2-1.1-.5-.3-.3-.4-.7-.4-1.1,0-.4.2-.8.4-1.1.3-.3.7-.5,1.1-.5.4,0,.8.2,1.1.5.3.3.4.7.4,1.1,0,.4-.1.8-.4,1.1-.3.3-.7.5-1.1.5"/>
      <path id="Path_101" class="st12" d="M284.7,45.6v-3.2c0-.7-.1-1.5-.5-2.1-.3-.4-.9-.7-1.4-.7-.6,0-1.1.3-1.5.8-.4.6-.6,1.2-.6,1.9,0,.9.1,1.7.6,2.5.6.6,1.4.8,2.3.7h1.1M281.4,47.7c-.5-.1-.9-.3-1.3-.5-.3-.1-.6-.4-.9-.6-.2-.2-.3-.4-.5-.7-.2.6-.5,1.1-1.1,1.4-.6.4-1.4.5-2.1.5h-32.6v-2.3h6.4c0-.6,0-1.1-.2-1.7-.1-.6-.4-1.2-.8-1.8-.4-.6-1-1.2-1.6-1.6-.8-.6-1.8-1-2.8-1.2l.2-2.4c1.3.1,2.6.5,3.7,1.1.9.5,1.8,1.2,2.4,2,.6.8,1.1,1.7,1.3,2.6.3.9.4,1.8.4,2.8h0c0,0,8.9,0,8.9,0v-2c0-.6,0-1.1-.2-1.7-.1-.4-.4-.8-.7-1.1-.4-.3-.8-.5-1.2-.6-.6-.1-1.2-.2-1.8-.2-.4,0-.8,0-1.1,0s-.6,0-.9,0l.2-2.2c.3,0,.5,0,.9,0,.3,0,.7,0,1.2,0,1.1,0,2.1.1,3.1.4.8.2,1.5.6,2.1,1.1.5.5.9,1,1.1,1.7.2.7.3,1.4.3,2.1v2.5h5.1v-7.8h2.8v7.8h4.1c.3,0,.5,0,.7-.2.2-.2.4-.4.5-.6.1-.3.3-.5.3-.8,0-.3.1-.6.1-.9,0-.9.1-1.7.4-2.5.2-.7.6-1.3,1.1-1.8.5-.5,1-.8,1.7-1,.7-.2,1.4-.3,2.1-.3.7,0,1.3.1,1.9.4.5.2,1,.6,1.4,1.1.4.5.7,1.1.9,1.7.2.7.3,1.4.3,2.2v2.8h5.1v-12.8h2.8v15.1h-12.2c-.6,0-1.2,0-1.8-.2"/>
      <rect id="Rectangle_108" class="st12" x="299" y="32.8" width="2.8" height="15.1"/>
      <path id="Path_102" class="st12" d="M313.5,36.2c-.4,0-.8-.2-1.1-.5-.3-.3-.4-.7-.4-1.1,0-.4.2-.8.4-1.1.3-.3.7-.5,1.1-.5.4,0,.8.2,1.1.5.3.3.4.7.4,1.1,0,.4-.1.8-.4,1.1-.3.3-.7.5-1.1.5M317.1,45.6v-5.7c-.2,0-.5,0-.7-.1-.2,0-.4,0-.6,0-.7,0-1.3.2-1.8.8-.5.6-.7,1.3-.7,2.1,0,.4,0,.8.1,1.2,0,.4.2.7.5,1,.2.3.5.5.8.7.4.2.8.3,1.3.2h1ZM317.4,36.2c-.4,0-.8-.2-1.1-.5-.3-.3-.4-.7-.4-1.1,0-.4.2-.8.4-1.1.3-.3.7-.5,1.1-.5.4,0,.8.2,1.1.5.3.3.4.7.4,1.1,0,.4-.1.8-.4,1.1-.3.3-.7.5-1.1.5M328.5,52.7c-.4,0-.8-.2-1.1-.5-.3-.3-.5-.7-.4-1.2,0-.4.2-.8.4-1.1.3-.3.7-.5,1.1-.5.4,0,.8.2,1.1.5.3.3.4.7.4,1.1,0,.4-.1.9-.4,1.2-.3.3-.7.5-1.1.5M332.4,52.7c-.4,0-.8-.2-1.1-.5-.3-.3-.5-.7-.4-1.2,0-.4.2-.8.4-1.1.3-.3.7-.5,1.1-.5.4,0,.8.2,1.1.5.3.3.4.7.4,1.1,0,.4-.1.9-.4,1.2-.3.3-.7.5-1.1.5M311.8,46.6c-.9-1-1.4-2.3-1.3-3.6,0-.7.1-1.4.3-2.1.4-1.4,1.5-2.4,2.8-3,.8-.3,1.6-.5,2.5-.5.7,0,1.3,0,1.9,0s1.2.1,1.8.2v7.8h10.5v-7.8h2.8v7.8h7.1v-7.8h2.8v10.1h-27.2c-1.5.1-2.9-.4-4-1.3M340.3,52.7c-.9,0-1.6-.7-1.6-1.6,0,0,0,0,0,0,0-.4.2-.8.5-1.1.3-.3.7-.5,1.1-.5.4,0,.8.2,1.1.5.3.3.5.7.5,1.1,0,.4-.2.9-.5,1.2-.3.3-.7.5-1.1.5"/>
      <path id="Path_103" class="st12" d="M362.2,43.5c.4-.3.7-.7.9-1.1.2-.3.3-.7.3-1.1,0-.5-.2-1-.6-1.3-.4-.3-1-.5-1.5-.5-.5,0-1,0-1.5.3-.4.2-.9.4-1.3.7.4.1.7.3,1,.5.3.2.6.4.9.7.3.2.6.5.9.8l1,1M345.7,53.3c-.4,0-.8,0-1.1,0l.2-2.3c.3,0,.6,0,1,0,.7,0,1.5-.2,2-.6.5-.7.8-1.5.7-2.3v-10.3h2.8v7.8h4.5c1.4,0,2.8-.3,4.1-.8-.3-.3-.6-.6-.9-.9-.3-.3-.6-.6-.9-.8-.4-.3-.7-.5-1.1-.7-.5-.3-1-.5-1.5-.7l.3-2.4c.8-.6,1.8-1.1,2.7-1.5.9-.4,1.9-.6,2.9-.6.7,0,1.4,0,2.1.3.6.2,1.1.5,1.5.8.4.3.7.8.9,1.2.2.5.3,1,.3,1.5,0,.7-.2,1.3-.5,1.9-.4.7-.9,1.3-1.5,1.8.4.2.8.4,1.2.6.4.2.9.2,1.3.2h5v-12.8h2.8v15.1h-7.9c-.9,0-1.8-.1-2.7-.4-.7-.2-1.4-.6-2.1-1.1-.9.5-1.8.8-2.8,1.1-1,.3-2,.4-2.9.4h-4.8c0,.8,0,1.4-.2,2.1-.2.6-.5,1.2-.9,1.7-.5.5-1,.9-1.7,1.2-.9.3-1.8.5-2.7.4"/>
      <rect id="Rectangle_109" class="st12" x="378" y="32.8" width="2.8" height="15.1"/>
      <path id="Path_104" class="st12" d="M392.9,47.3c-1-.3-1.8-.8-2.6-1.4-.6-.6-1.1-1.3-1.3-2.1-.3-.8-.4-1.6-.4-2.5,0-.5,0-1,.1-1.5,0-.5.2-1,.3-1.5l3-.6c-.2.5-.4,1-.4,1.6,0,.6-.1,1.1-.1,1.7,0,.6,0,1.3.3,1.9.2.6.5,1.1,1,1.4.5.4,1.2.7,1.8.9.9.2,1.9.3,2.9.3h10.8v-7.8h2.8v10.1h-14c-1.4,0-2.8-.1-4.1-.5M399.4,36.8c-.4,0-.8-.2-1.1-.5-.3-.3-.4-.7-.4-1.1,0-.4.2-.8.4-1.1.3-.3.7-.5,1.1-.5.4,0,.8.2,1.1.5.3.3.4.7.4,1.1,0,.4-.1.8-.4,1.1-.3.3-.7.5-1.1.5M403.3,36.8c-.4,0-.8-.2-1.1-.5-.3-.3-.4-.7-.4-1.1,0-.4.2-.8.4-1.1.3-.3.7-.5,1.1-.5.4,0,.8.2,1.1.5.3.3.4.7.4,1.1,0,.4-.1.8-.4,1.1-.3.3-.7.5-1.1.5"/>
      <rect id="Rectangle_110" class="st12" x="414.5" y="32.8" width="2.8" height="15.1"/>
      <path id="Path_105" class="st12" d="M418.6,53.3c-.4,0-.8,0-1.1,0l.2-2.3c.3,0,.6,0,1,0,.7,0,1.5-.2,2-.6.5-.7.8-1.5.7-2.3v-10.3h2.8v10.2c0,.7,0,1.4-.2,2-.2.6-.5,1.2-.9,1.7-.5.5-1,.9-1.7,1.2-.9.3-1.8.5-2.7.4"/>
      <path id="Path_106" class="st12" d="M427.3,47.9v-15.1h2.8v12.8h4.8c.3,0,.5,0,.7-.2.2-.2.4-.4.5-.6.1-.3.3-.5.3-.8,0-.3.1-.6.1-.9,0-.9.1-1.7.4-2.5.2-.7.6-1.3,1.1-1.8.5-.5,1-.8,1.7-1,.7-.2,1.4-.3,2.1-.3.7,0,1.3.1,1.9.4.5.2,1,.6,1.4,1.1.4.5.7,1.1.9,1.7.2.7.3,1.4.3,2.2v5.1h-4.3c-.6,0-1.2,0-1.8-.2-.4-.1-.9-.3-1.3-.5-.3-.1-.6-.4-.9-.6-.2-.2-.3-.4-.5-.7-.2.6-.5,1.1-1.1,1.4-.6.4-1.4.5-2.1.5h-7.2M443.5,45.6v-3.2c0-.7-.1-1.5-.5-2.1-.3-.4-.9-.7-1.4-.7-.6,0-1.1.3-1.5.8-.4.6-.6,1.2-.6,1.9,0,.9.1,1.7.6,2.5.6.6,1.4.8,2.3.7h1.1Z"/>
      <path id="Path_107" class="st12" d="M453,32.8v9.9c-.5.2-.9.3-1.4.4s-.9.2-1.4.3v-10.6h2.8M449.1,52.5c0,0,.2,0,.3,0s.3,0,.4,0,.3,0,.4,0c.1,0,.3,0,.4,0-.1-.1-.2-.3-.3-.4,0-.2,0-.4,0-.6,0-.3,0-.5.2-.8.1-.2.3-.4.5-.6.2-.2.5-.3.8-.4.4-.1.7-.2,1.1-.2.2,0,.5,0,.7,0,.3,0,.5.1.7.2l-.5,1.3c-.1,0-.3-.2-.5-.2-.2,0-.4,0-.6,0-.2,0-.4,0-.6.2-.1.1-.2.3-.2.5,0,.5.4.8,1.4.8h1.1v1.6h-5.4v-1.6ZM452.9,48.1c-.6,0-1.2,0-1.8-.1-.5,0-1-.2-1.6-.3l.3-2.7c.5.2,1,.4,1.6.5.5.1,1.1.2,1.6.2.8,0,1.6-.1,2.3-.6.5-.4.8-1.1.7-1.8v-10.4h2.8v10.2c0,.7-.1,1.4-.3,2-.2.6-.6,1.2-1.1,1.6-.5.5-1.2.8-1.9,1.1-.9.3-1.8.4-2.8.4"/>
      <rect id="Rectangle_111" class="st12" x="462.3" y="32.8" width="2.8" height="15.1"/>
      <path id="Path_108" class="st12" d="M476.1,36.2c-.4,0-.8-.2-1.1-.5-.3-.3-.4-.7-.4-1.1,0-.4.1-.8.4-1.1.3-.3.7-.5,1.1-.5.4,0,.8.2,1.1.5.3.3.4.7.4,1.1,0,.4-.1.8-.4,1.1-.3.3-.7.5-1.1.5"/>
      <path id="Path_109" class="st12" d="M480.1,36.2c-.4,0-.8-.2-1.1-.5-.3-.3-.5-.7-.4-1.1,0-.4.2-.8.4-1.1.3-.3.7-.5,1.1-.5.4,0,.8.2,1.1.5.3.3.4.7.4,1.1,0,.4-.1.8-.4,1.1-.3.3-.7.5-1.1.5"/>
      <path id="Path_110" class="st12" d="M479.8,45.6v-5.7c-.2,0-.5,0-.7-.1-.2,0-.4,0-.6,0-.7,0-1.3.2-1.8.8-.5.6-.7,1.3-.7,2.1,0,.4,0,.8.1,1.2,0,.4.2.7.5,1,.2.3.5.5.8.7.4.2.8.3,1.2.2h1M493,43.5c.4-.3.7-.6.9-1.1.2-.3.3-.7.3-1.1,0-.5-.2-1-.6-1.3-.4-.3-1-.5-1.5-.5-.5,0-1,0-1.5.3-.4.2-.9.4-1.3.7.4.1.7.3,1,.5.3.2.6.4.9.7.3.2.6.5.9.8.3.3.6.6.9,1M474.4,46.6c-.9-1-1.4-2.3-1.3-3.6,0-.7.1-1.4.3-2.1.5-1.3,1.5-2.4,2.8-3,.8-.3,1.6-.5,2.5-.5.7,0,1.3,0,1.9,0s1.2.1,1.8.2v7.8h4.1c1.4,0,2.8-.3,4.1-.8-.3-.3-.6-.6-.9-.9-.3-.3-.6-.6-.9-.8-.8-.6-1.6-1.1-2.6-1.4l.3-2.4c.8-.6,1.8-1.1,2.7-1.5.9-.4,1.9-.6,2.9-.6.7,0,1.4,0,2.1.3.6.2,1.1.5,1.5.8.4.3.7.8.9,1.2.2.5.3,1,.3,1.5,0,.7-.2,1.3-.5,1.9-.4.7-.9,1.3-1.5,1.8.4.2.8.4,1.2.6.4.2.9.2,1.3.2h2.5c.3,0,.5,0,.7-.2.2-.2.4-.4.5-.6.1-.3.2-.5.3-.8,0-.3.1-.6.1-.9,0-.9.1-1.7.4-2.5.2-.7.6-1.3,1.1-1.8.5-.5,1-.8,1.7-1,.7-.2,1.4-.3,2.1-.3.7,0,1.3.1,1.9.4.5.2,1,.6,1.4,1.1.4.5.7,1.1.8,1.7.2.7.3,1.4.3,2.2v5.1h-4.3c-.6,0-1.2,0-1.8-.2-.5-.1-.9-.3-1.3-.5-.3-.2-.6-.4-.8-.6-.2-.2-.3-.4-.5-.7-.2.6-.5,1.1-1,1.4-.6.4-1.4.5-2.1.5h-2.2c-.9,0-1.8-.1-2.7-.4-.7-.2-1.4-.6-2.1-1.1-.9.5-1.8.8-2.8,1.1-1,.3-2,.4-2.9.4h-8.4c-1.5.1-2.9-.4-4-1.3M508.6,45.6v-3.2c0-.7-.1-1.5-.5-2.1-.3-.4-.9-.7-1.4-.7-.6,0-1.1.3-1.5.8-.4.6-.6,1.2-.6,1.9,0,.9.1,1.7.6,2.5.6.6,1.4.8,2.3.7h1.1Z"/>
      <path id="Path_111" class="st12" d="M514.7,47.9v-15.1h2.8v12.8h10.7v-2c0-.6,0-1.1-.2-1.7-.1-.4-.4-.8-.7-1.1-.4-.3-.8-.5-1.2-.6-.6-.1-1.2-.2-1.9-.2-.4,0-.8,0-1.1,0s-.6,0-.9,0l.2-2.2c.2,0,.5,0,.9,0s.7,0,1.2,0c1.1,0,2.1.1,3.1.4.8.2,1.5.6,2.1,1.1.5.5.9,1,1.1,1.7.2.7.3,1.4.3,2.1v4.7h-16.4M525,52.7c-.4,0-.8-.2-1.1-.5-.3-.3-.5-.7-.5-1.2,0-.4.2-.8.5-1.1.3-.3.7-.5,1.1-.5.4,0,.8.2,1.1.5.3.3.5.7.5,1.1,0,.4-.2.9-.5,1.2-.3.3-.7.5-1.1.5"/>
      <path id="Path_112" class="st12" d="M237.1,73.6c-4.5,0-5.5-2.4-5.5-5.2v-9.4h2.8v9.2c0,1.8.6,3.1,3,3.1s3-.9,3-3.4v-8.9h2.7v8.8c0,3.9-2.2,5.8-6,5.8"/>
      <path id="Path_113" class="st12" d="M252.7,73.4v-6.7c0-1.1-.3-1.8-1.3-1.8s-2.5,1.6-2.5,3.4v5.1h-2.7v-8.5c-.5,0-1.2-.2-1.8-.2v-1.7c1.5-.2,2.9-.2,4.4-.2,0,.6,0,1.3-.2,1.9h0c.7-1.3,2.1-2.1,3.6-2.1,2.4,0,3.1,1.5,3.1,3.4v7.4h-2.7"/>
      <path id="Path_114" class="st12" d="M259.1,73.4v-8.5c-.5,0-1.2-.2-1.8-.2v-1.7c1.5-.2,3-.2,4.5-.2v10.5h-2.7M260.4,61.3c-.9,0-1.6-.8-1.6-1.7s.8-1.6,1.7-1.6c.9,0,1.6.8,1.6,1.7,0,.9-.8,1.6-1.7,1.6,0,0,0,0,0,0"/>
      <path id="Path_115" class="st12" d="M268.3,73.6c-2.3,0-3.1-.8-3.1-3.3v-5.4h-1.8v-2.1h1.8v-3.3l2.7-.7v4h2.6v2.1h-2.6v4.7c0,1.4.3,1.8,1.3,1.8.4,0,.8,0,1.2-.2l.2,2.1c-.7.2-1.5.3-2.3.3"/>
      <path id="Path_116" class="st12" d="M281.3,68.6h-6.5c-.2,1.4.8,2.7,2.2,2.9.2,0,.5,0,.7,0,1.1,0,2.1-.2,3.1-.7l.3,2.1c-1.2.5-2.5.7-3.8.7-3.3,0-5.2-1.7-5.2-5.4s1.8-5.6,4.9-5.6,4.4,2.1,4.4,4.7c0,.4,0,.9,0,1.3M276.8,64.6c-1.2,0-2.1,1-2.1,2.2h3.9c0-1.4-.7-2.2-1.8-2.2"/>
      <path id="Path_117" class="st12" d="M290,73.4c0-.6,0-1.2.1-1.8h0c-.6,1.3-1.9,2-3.3,2-2.6,0-3.8-1.9-3.8-4.9s2.1-6,5.6-6c.4,0,.9,0,1.3,0v-2.8c-.5,0-1.2-.2-1.8-.2v-1.7c1.5-.2,3-.2,4.5-.2v13.4c.5,0,1.2.2,1.8.2v1.7c-1.5.2-2.9.2-4.4.2M289.8,65c-.5-.1-.9-.2-1.4-.2-1.6,0-2.7,1-2.7,3.6s.6,3,1.8,3,2.3-1.7,2.3-3.5v-3Z"/>
      <path id="Path_118" class="st12" d="M309.4,73.4l-1-2.9h-5.4l-1,2.9h-2.8l5-14.3h3.1l5.1,14.3h-3.1M306.3,64.2c-.2-.6-.4-1.3-.6-2h0c-.2.7-.3,1.3-.6,2l-1.4,4.1h4l-1.4-4.1Z"/>
      <path id="Path_119" class="st12" d="M320,65.3c-2-.4-3,.9-3,3.8v4.3h-2.7v-8.5c-.5,0-1.2-.2-1.8-.2v-1.7c1.5-.2,2.9-.2,4.4-.2,0,.7,0,1.4-.2,2.1h0c.4-1.5,1.9-2.5,3.4-2.3v2.7"/>
      <path id="Path_120" class="st12" d="M326.8,73.4c0-.6,0-1.2.1-1.8h0c-.6,1.3-2,2-3.4,2-1.5.2-2.8-.9-3-2.4,0-.1,0-.3,0-.4,0-2.5,2.5-3.8,6.1-3.8v-.5c0-1.1-.5-1.7-2.1-1.7-1.1,0-2.1.3-3.1.8l-.3-2.2c1.2-.4,2.5-.6,3.8-.6,3.4,0,4.4,1.4,4.4,3.7v5c.5,0,1.2.2,1.8.2v1.7c-1.4.2-2.9.2-4.4.2M326.6,68.7c-2.8,0-3.5.7-3.5,1.6,0,.6.5,1.2,1.1,1.2,0,0,.1,0,.2,0,1.3-.1,2.3-1.2,2.3-2.6v-.3Z"/>
      <path id="Path_121" class="st12" d="M336.8,73.6c-1.3,0-2.7-.2-3.9-.5v-13.1c-.5,0-1.2-.2-1.8-.2v-1.7c1.5-.2,3-.2,4.6-.2v4.5c0,.7,0,1.4-.2,2.1h0c.6-1.2,1.9-1.9,3.2-1.8,2.5,0,3.9,1.8,3.9,4.9s-2.1,6-5.7,6M337.9,64.9c-1.4,0-2.3,1.7-2.3,3.4v3c.5.1.9.2,1.4.2,1.6,0,2.7-1,2.7-3.6s-.6-3-1.8-3"/>
      <path id="Path_122" class="st12" d="M349.4,73.4v-14.3h7.8v2.3h-5v3.5h4.8v2.3h-4.8v3.9h5v2.3h-7.8Z"/>
      <path id="Path_123" class="st12" d="M373.3,73.4v-6.7c0-1.1-.3-1.8-1.3-1.8s-2.4,1.4-2.4,3.5v5h-2.7v-6.7c0-1-.2-1.8-1.3-1.8s-2.4,1.5-2.4,3.5v5h-2.7v-8.5c-.5,0-1.2-.2-1.8-.2v-1.7c1.5-.2,2.9-.2,4.4-.2,0,.6,0,1.3-.1,1.9h0c.7-1.3,2-2.1,3.5-2.1,1.4-.1,2.6.8,2.9,2.1.7-1.3,2-2.1,3.4-2.1,2,0,3.2,1.1,3.2,3.5v7.2h-2.7"/>
      <path id="Path_124" class="st12" d="M379.7,73.4v-8.5c-.5,0-1.2-.2-1.8-.2v-1.7c1.5-.2,3-.2,4.5-.2v10.5h-2.7M381,61.3c-.9,0-1.6-.8-1.6-1.7,0-.9.8-1.6,1.7-1.6.9,0,1.6.8,1.6,1.7,0,.9-.8,1.7-1.7,1.6"/>
      <path id="Path_125" class="st12" d="M391.7,65.3c-2-.4-3,.9-3,3.8v4.3h-2.7v-8.5c-.5,0-1.2-.2-1.8-.2v-1.7c1.5-.2,2.9-.2,4.4-.2,0,.7,0,1.4-.2,2.1h0c.4-1.5,1.9-2.5,3.4-2.3v2.7"/>
      <path id="Path_126" class="st12" d="M398.5,73.4c0-.6,0-1.2,0-1.8h0c-.6,1.3-2,2-3.4,2-1.5.2-2.8-.9-3-2.4,0-.1,0-.3,0-.4,0-2.5,2.5-3.8,6.1-3.8v-.5c0-1.1-.5-1.7-2.1-1.7-1.1,0-2.1.3-3.1.8l-.3-2.2c1.2-.4,2.5-.6,3.8-.6,3.4,0,4.4,1.4,4.4,3.7v5c.5,0,1.2.2,1.9.2v1.7c-1.4.2-2.9.2-4.4.2M398.2,68.7c-2.8,0-3.5.7-3.5,1.6,0,.6.5,1.2,1.1,1.2,0,0,.1,0,.2,0,1.3-.1,2.3-1.2,2.3-2.6v-.3Z"/>
      <path id="Path_127" class="st12" d="M408,73.6c-2.3,0-3.1-.8-3.1-3.3v-5.4h-1.8v-2.1h1.8v-3.3l2.7-.7v4h2.6v2.1h-2.6v4.7c0,1.4.3,1.8,1.3,1.8.4,0,.8,0,1.2-.2l.2,2.1c-.8.2-1.5.3-2.3.3"/>
      <path id="Path_128" class="st12" d="M421,68.6h-6.5c-.2,1.4.8,2.7,2.2,2.9.2,0,.5,0,.7,0,1.1,0,2.1-.2,3.1-.7l.3,2.1c-1.2.5-2.5.7-3.8.7-3.3,0-5.2-1.7-5.2-5.4s1.8-5.6,4.9-5.6,4.4,2.1,4.4,4.7c0,.4,0,.9,0,1.3M416.6,64.6c-1.2,0-2.1,1-2.1,2.2h3.9c0-1.4-.7-2.2-1.8-2.2"/>
      <path id="Path_129" class="st12" d="M425.3,73.6c-.8,0-1.6,0-2.4-.3l.2-2.2c.7.3,1.5.5,2.3.4,1,0,1.7-.5,1.7-1.2,0-1.9-4.3-.8-4.3-4.3s1.4-3.4,4.5-3.4c.7,0,1.3,0,1.9.2v2.1c-.7-.2-1.4-.3-2-.3-1.1,0-1.6.4-1.6,1.1,0,1.7,4.4.9,4.4,4.3s-1.8,3.5-4.7,3.5"/>
      <path id="Path_130" class="st12" d="M442,73.6c-4.5,0-5.5-2.4-5.5-5.2v-9.4h2.8v9.2c0,1.8.6,3.1,3,3.1s3-.9,3-3.4v-8.9h2.7v8.8c0,3.9-2.2,5.8-5.9,5.8"/>
      <path id="Path_131" class="st12" d="M458.1,73.4v-6.7c0-1.1-.3-1.8-1.3-1.8s-2.5,1.6-2.5,3.4v5.1h-2.7v-8.5c-.5,0-1.2-.2-1.8-.2v-1.7c1.5-.2,2.9-.2,4.4-.2,0,.6,0,1.3-.2,1.9h0c.7-1.3,2.1-2.1,3.6-2.1,2.4,0,3.1,1.5,3.1,3.4v7.4h-2.7"/>
      <path id="Path_132" class="st12" d="M464.5,73.4v-8.5c-.5,0-1.2-.2-1.8-.2v-1.7c1.5-.2,3-.2,4.5-.2v10.5h-2.7M465.8,61.3c-.9,0-1.6-.7-1.6-1.6,0-.9.7-1.6,1.6-1.6h0c.9,0,1.7.7,1.7,1.6,0,.9-.7,1.7-1.6,1.7,0,0,0,0-.1,0"/>
      <path id="Path_133" class="st12" d="M475.4,73.4h-2.8l-3.9-10.5h3l1.7,4.7c.2.8.5,1.6.7,2.3h0c.2-.8.4-1.5.6-2.3l1.7-4.8h2.9l-3.9,10.5"/>
      <path id="Path_134" class="st12" d="M489.2,68.6h-6.5c-.2,1.4.8,2.7,2.2,2.9.2,0,.5,0,.7,0,1.1,0,2.1-.2,3.1-.7l.3,2.1c-1.2.5-2.5.7-3.8.7-3.3,0-5.2-1.7-5.2-5.4s1.8-5.6,5-5.6,4.4,2.1,4.4,4.7,0,.9,0,1.3M484.7,64.6c-1.2,0-2.1,1-2.1,2.2h3.9c0-1.4-.7-2.2-1.8-2.2"/>
      <path id="Path_135" class="st12" d="M497.6,65.3c-2-.4-3,.9-3,3.8v4.3h-2.7v-8.5c-.5,0-1.2-.2-1.9-.2v-1.7c1.5-.2,2.9-.2,4.4-.2,0,.7,0,1.4-.2,2.1h0c.4-1.5,1.9-2.5,3.4-2.3v2.7"/>
      <path id="Path_136" class="st12" d="M501.4,73.6c-.8,0-1.6,0-2.3-.3l.2-2.2c.7.3,1.5.5,2.2.4,1,0,1.7-.5,1.7-1.2,0-1.9-4.3-.8-4.3-4.3s1.4-3.4,4.5-3.4c.6,0,1.3,0,1.9.2v2.1c-.7-.2-1.4-.3-2-.3-1.1,0-1.6.4-1.6,1.1,0,1.7,4.4.9,4.4,4.3s-1.9,3.5-4.7,3.5"/>
      <path id="Path_137" class="st12" d="M508.6,73.4v-8.5c-.5,0-1.2-.2-1.8-.2v-1.7c1.5-.2,3-.2,4.5-.2v10.5h-2.7M510,61.3c-.9,0-1.6-.8-1.6-1.7,0-.9.8-1.6,1.7-1.6.9,0,1.6.8,1.6,1.6,0,.9-.8,1.6-1.7,1.6,0,0,0,0,0,0"/>
      <path id="Path_138" class="st12" d="M517.8,73.6c-2.3,0-3.1-.8-3.1-3.3v-5.4h-1.8v-2.1h1.8v-3.3l2.7-.7v4h2.6v2.1h-2.6v4.7c0,1.4.3,1.8,1.2,1.8.4,0,.8,0,1.2-.2l.2,2.1c-.7.2-1.5.3-2.3.3"/>
      <path id="Path_139" class="st12" d="M527.2,74c-1.4,3.7-2.9,4.7-5.3,4.7-.5,0-1,0-1.5-.1l.3-2.3c.4.1.9.2,1.3.2.9,0,1.8-.4,2.4-2.1l.3-1-3.9-10.5h3l1.4,4c.3.9.6,2,.8,2.9h0c.2-.9.7-2.4,1-3.3l1.3-3.6h2.9l-4.2,11.1"/>
    </g>
    <g id="Group_52">
      <path id="Path_140" class="st0" d="M588.7,42.1c0-.2-.1-.3-.2-.5-.4-1-1.1-1.9-2-2.6-.5-.3-.8-.3-.9-.1-.1.1-.1.4.1.7.8,1,1.2,2.3,1.3,3.6.1,1.3,0,2.5-.4,3.7-.9,1.9-2.2,3.6-3.9,4.9-.3.2-.5.4-.7.7-.1.3-.2.5-.3.8-.3,1-.7,1.9-1.3,2.8-.8,1-2,1.7-3.3,1.7-1.1,0-1.5-1.2-1.9-2.6-.5-1.7-1.1-3.6-3.2-3.6-.4,0-.9,0-1.3.2-.5.2-.9.6-1.1,1.1-.4.2-.8.6-1,1,0,.1,0,.3,0,.4,0,.2,0,.5.2.7h.2c0-.4.4-.6.8-.6.3,0,.5.1.7.4.1.2.2.5.2.7,0,.6-.3,1.2-.8,1.6-.5.5-1.2.7-1.8.7-1.3,0-2.5-.7-3.3-1.7-.6-.8-1.1-1.8-1.3-2.8,0-.3-.2-.6-.3-.8-.2-.2-.4-.5-.7-.7-1.7-1.3-3-3-3.9-4.9-.4-1.2-.6-2.5-.4-3.7,0-1.3.5-2.5,1.3-3.6.2-.3.2-.5.1-.7-.1-.1-.4-.2-.9.1-.9.6-1.6,1.5-2,2.6,0,.2-.1.3-.2.5,0,0-.2,0-.3,0-.5.2-.9,1.6-1.1,2.1-.3,1-.4,2-.5,3h0s0,0-.1,0c-.3,0-.5.7-.5.9-.2.8-.3,1.6-.2,2.4v.2c0,.8.1,1.6.3,2.4,0,0,0,0-.1,0-.2.1-.3.5-.3,1.3,0,1.3.4,2.6,1.2,3.7,0,0-.1,0-.2.1-.1.2,0,.7.2,1.4.2.6.5,1.1.8,1.6.5.8,1.2,1.5,1.9,2.1,0,.2,0,.5,0,.7.7,1,1.7,1.8,2.8,2.3,0,.3,0,.6.3.8.9.9,2.1,1.5,3.3,1.8,1.1.4,2.3.6,3.5.8.2.3.3.7.2,1-.2.8-.6,1.5-1,2.2-.7,1.4-1.2,2.2-1,2.5,0,0,.1.1.2.1,0,0,0,0,0,0,0,.2-.1.4-.2.7,0,0,0,0,0,0-.2,0-.4-.1-.6,0-.4.1-.8.4-1,.7-.1.2-.2.5-.3.7-1.3-.4-2.6-1-3.8-1.6l1.5-6.2c-9.7-6-12.7-18.8-6.7-28.5,1.9-3.1,4.7-5.7,7.9-7.4l-4.8-4.6c-12.6,8-16.4,24.7-8.4,37.3,1.5,2.4,3.4,4.6,5.6,6.4l-1.8,4.6h0c0,1,2.6,3,5.9,4.6,8.3,4.1,18.1,4.1,26.4,0,3.3-1.6,5.9-3.6,5.9-4.5h0s0,0,0,0l-1.8-4.6c11.5-9.5,13.1-26.6,3.6-38.1-1.8-2.2-4-4.1-6.4-5.6l-4.8,4.6c10.1,5.3,14,17.9,8.6,28-1.7,3.2-4.3,6-7.4,7.9l1.5,6.2c-1.2.6-2.5,1.2-3.8,1.6h0c0-.3-.1-.5-.3-.7-.2-.4-.6-.6-1-.7-.2,0-.4,0-.6,0,0,0,0,0,0,0,0-.3-.1-.6-.2-.7,0,0,0,0,0,0,0,0,.2,0,.2-.1.2-.3-.3-1.2-1-2.5-.4-.7-.8-1.4-1-2.2,0-.4,0-.7.2-1,1.2-.1,2.4-.4,3.5-.8,1.2-.3,2.4-.9,3.3-1.8.2-.2.3-.5.3-.8,1.1-.5,2.1-1.3,2.8-2.3.1-.2.2-.5,0-.7.7-.6,1.4-1.3,1.9-2.1.3-.5.6-1,.8-1.6.3-.7.4-1.2.2-1.4,0,0-.1-.1-.2-.1.7-1.1,1.1-2.4,1.2-3.8,0-.7,0-1.2-.3-1.3,0,0,0,0-.1,0,.2-.8.3-1.6.3-2.4v-.2c0-.8,0-1.6-.2-2.4,0-.1-.2-.8-.5-.9,0,0,0,0-.1,0h0c0-1-.2-2-.5-3-.2-.6-.6-2-1.1-2.1,0,0-.2,0-.3,0"/>
      <path id="Path_141" class="st3" d="M576.9,78.8c0-.1,0-.4,0-.6,0-.1,0-.2,0-.4,0-.4.2-.8.8-.8-.1-.3-.3-.6-.4-1,0,0,0,0,0,0-.2,0-.3-.2-.7-.8h0c0,.2.2.5.2.7,0,.6,0,1.1-.2,1.6,0,0-.1,0-.2,0-.5,0-.9-.3-1.2-.7,0,.3-.1.7-.3.9,0,0-.2.1-.3.1-.3,0-.7-.4-1-.9-.2.7-.6,1.3-1.1,1.3s-.9-.6-1.1-1.3c-.3.5-.7.9-1,.9-.1,0-.2,0-.3-.1-.2-.3-.3-.6-.3-.9-.3.4-.7.6-1.2.7,0,0-.1,0-.2,0-.2-.5-.2-1.1-.2-1.6,0-.2,0-.4.2-.8,0,0,0,0,0,.1-.4.6-.6.8-.7.8s0,0,0,0c-.1.4-.3.7-.4,1,.5,0,.7.3.8.8,0,.1,0,.2,0,.4,0,.2,0,.4,0,.6,1.4.2,2.9.4,4.4.4,1.5,0,2.9-.1,4.4-.4"/>
      <path id="Path_144" class="st0" d="M574.9,28.1c0,.1-.1.3-.2.4h0c0-.7,0-1.2-.3-1.7h-.2c-.2.2-.4.7-.6.9,0-.2,0-.4,0-.6-.2-.9-.5-1.7-1-2.5h-.2c-.5.7-.9,1.6-1,2.5,0,.2,0,.4,0,.6-.2-.3-.4-.7-.6-.9h-.2c-.2.5-.3,1-.3,1.6h0s0-.1-.2-.3h-.3c-.1.5-.2,1.1,0,1.7,0,.1,0,.2,0,.3h0c0,0,0,0,0,0,1.8.3,3.6.3,5.3,0h0s0,0,0,0c0-.1,0-.2,0-.3,0-.6,0-1.1,0-1.7h-.3"/>
      <path id="Path_145" class="st9" d="M571.6,28.1c0,0,0-.2,0-.3-.7-.5-.9-1.6-.4-2.3s1.6-.9,2.3-.4.9,1.6.4,2.3c0,.1-.2.3-.4.4,0,0,0,.2,0,.3h.2c0,0,.5-.8.7-1,.1.4.2.9.2,1.3,0,.3,0,.5,0,.8h.2c0,0,.2-.5.3-.8,0,.2,0,.4,0,.7,0,.2,0,.5,0,.7,0,0,0,.2,0,.2-1.7.3-3.4.3-5.1,0,0,0,0-.1,0-.2,0-.2,0-.4,0-.6,0-.2,0-.5,0-.7.1.3.3.9.3.9h.2c0-.3,0-.6,0-.9,0-.4,0-.9.2-1.3l.7,1.1h.2"/>
      <path id="Path_146" class="st0" d="M567.4,32.9v7.5l5.2,2.2,5.1-2.1v-8l-5.1,2.1-5.2-2.2v.5"/>
      <path id="Path_147" class="st7" d="M568,33.4l4.5,1.9,4.5-1.9v6.6l-4.5,1.9-4.5-1.9v-6.6"/>
      <path id="Path_148" class="st0" d="M572.5,35.9l-4-1.7v5.5l4,1.7,4-1.7v-5.5l-4,1.7Z"/>
      <path id="Path_149" class="st0" d="M577.9,41.7l-5.4,2.6-5.8-2.7h0c-.4-.1-.7-.4-1-.7h0s0,0,0,0h-1.3c0,.1,0,.2,0,.2l.8,1.2h0c.4,0,.8.2,1.3.4h0c0,0,4.8,2.4,4.8,2.4l-1.8.9c-.5.2-1.3.7-2,1.1-.8.5-1.1.8-.9,1,0,0,0,.1.2.1.5.2,2.3-.6,3.4-1.1l2.7-1.3,2.7,1.3c1,.5,2.9,1.3,3.4,1.1,0,0,.1,0,.2-.1,0,0,0-.1,0-.2-.2-.5-2-1.4-3-1.9l-1.8-.8,4.5-2.1c.2,0,.3,0,.4,0,.7-.3,1.2-.8,1.6-1.5h0c0-.1-.1-.2-.1-.2-.7,0-1.5,0-2.2.3-.1,0-.3.2-.3.3"/>
      <path id="Path_150" class="st0" d="M575.5,30.5c-1.9.4-3.9.4-5.8,0h-.1s0,0,0,0c0,.8.2,1.6.7,2.2.6.6,1.4.9,2.3.9.9,0,1.7-.3,2.3-.9.5-.6.8-1.4.8-2.2h0c0-.1-.1-.1-.1-.1"/>
      <path id="Path_151" class="st4" d="M552.5,63.5c-6.1-10.9-2.3-24.7,8.5-31l1.5,1.4c-10,5.5-13.8,18-8.5,28.2"/>
      <line id="Line_41" class="st8" x1="554" y1="62.1" x2="552.5" y2="63.5"/>
      <path id="Path_152" class="st9" d="M561.2,69.9l-5.8,3.1c-2.3-1.9-4.2-4.1-5.8-6.7h0l4.5-4.1h0c1.7,3.1,4.1,5.7,7.1,7.6"/>
      <path id="Path_153" class="st0" d="M559.9,76c-1.5-.8-3-1.8-4.3-2.8l5.7-3.1-1.4,5.9"/>
      <path id="Path_154" class="st7" d="M559.5,31l1.4,1.3c-10.9,6.4-14.6,20.3-8.5,31.3l-1.4,1.3c-6.8-11.7-3.1-26.7,8.5-33.8"/>
      <path id="Path_155" class="st4" d="M592.5,63.5c6.1-10.9,2.3-24.7-8.5-31l-1.5,1.4c10,5.5,13.8,18,8.5,28.2"/>
      <line id="Line_42" class="st8" x1="591" y1="62.1" x2="592.5" y2="63.5"/>
      <path id="Path_156" class="st9" d="M583.8,69.9l5.8,3.1c2.3-1.9,4.2-4.1,5.8-6.7h0l-4.5-4.1c-1.7,3.1-4.1,5.7-7.1,7.6"/>
      <path id="Path_157" class="st0" d="M585.1,76c1.5-.8,3-1.8,4.3-2.8l-5.7-3.1,1.4,5.9"/>
      <path id="Path_158" class="st7" d="M585.6,31l-1.4,1.3c10.9,6.4,14.6,20.3,8.5,31.3l1.4,1.3c6.8-11.7,3.1-26.7-8.5-33.8"/>
      <path id="Path_159" class="st7" d="M566.7,41.8l-.3.6c-.4-.2-.8-.3-1.3-.4,0,0-.3-.5-.5-.7l1.1.5v-.2c0,0-1-.5-1-.5h.9c.3.2.7.5,1.1.7"/>
      <path id="Path_160" class="st7" d="M578.1,42.3c0-.1,0-.3,0-.4,0-.1.1-.2.3-.3.6-.2,1.2-.3,1.9-.3-.4.5-.8.9-1.4,1.2-.3.1-.6,0-.7-.2"/>
      <path id="Path_161" class="st9" d="M571.6,28.1c0,0,0-.2,0-.3-.7-.5-.9-1.6-.4-2.3s1.6-.9,2.3-.4.9,1.6.4,2.3c0,.1-.2.3-.4.4,0,0,0,.2,0,.3h.2c0,0,.5-.8.7-1,.1.4.2.9.2,1.3,0,.3,0,.5,0,.8h.2c0,0,.2-.5.3-.8,0,.2,0,.4,0,.7,0,.2,0,.5,0,.7,0,0,0,.2,0,.2-1.7.3-3.4.3-5.1,0,0,0,0-.1,0-.2,0-.2,0-.4,0-.6,0-.2,0-.5,0-.7.1.3.3.9.3.9h.2c0-.3,0-.6,0-.9,0-.4,0-.9.2-1.3l.7,1.1h.2"/>
      <path id="Path_162" class="st0" d="M567.4,32.9v7.5l5.2,2.2,5.1-2.1v-8l-5.1,2.1-5.2-2.2v.5"/>
      <path id="Path_163" class="st7" d="M568,33.4l4.5,1.9,4.5-1.9v6.6l-4.5,1.9-4.5-1.9v-6.6"/>
      <path id="Path_164" class="st0" d="M572.5,35.9l-4-1.7v5.5l4,1.7,4-1.7v-5.5l-4,1.7Z"/>
      <path id="Path_165" class="st7" d="M578.1,42.3c0-.1,0-.3,0-.4,0-.1.1-.2.3-.3.6-.2,1.2-.3,1.9-.3-.4.5-.8.9-1.4,1.2-.3.1-.6,0-.7-.2"/>
      <path id="Path_168" class="st3" d="M571.6,72.1c-.1,1.5-.3,3.8-.2,4.3,0,.2,0,.3,0,.5-.3.5-.7,1-.9,1,0,0,0,0-.1,0-.2-.4-.3-.9-.3-1.4,0-.3.2-1.2.3-2.2,0-.5.2-1,.3-1.5.3-.2.6-.4.9-.6"/>
      <path id="Path_169" class="st3" d="M570.4,72.9c0,.4-.1.9-.2,1.3-.1.7-.3,1.5-.3,2.2v.3c-.2.4-.7.7-1.1.8,0,0-.1-.2-.1-.6,0,0,0-.2,0-.3,0-.2,0-.4,0-.5,0-.2.2-.8.4-1.4.4-.6.9-1.2,1.4-1.7"/>
      <path id="Path_174" class="st3" d="M572.5,71.9c.2,0,.5,0,.7.1.1,1.5.3,3.8.3,4.3,0,.8-.5,1.9-1,1.9s-.9-1.1-1-1.9c0-.5.1-2.8.3-4.3.2,0,.5-.1.7-.1"/>
      <path id="Path_175" class="st3" d="M573.5,72.1c.1,1.5.3,3.8.3,4.3,0,.2,0,.3,0,.5.3.5.7,1,.9,1,0,0,0,0,.1,0,.2-.4.3-.9.3-1.4,0-.7-.2-1.5-.3-2.2,0-.5-.2-1-.3-1.5-.3-.2-.6-.4-.9-.6"/>
      <path id="Path_176" class="st3" d="M574.7,72.9c0,.4.1.9.2,1.3.1.7.3,1.5.3,2.2v.3c.2.4.7.7,1.1.8,0,0,.1-.2.1-.6,0,0,0-.2,0-.3,0-.2,0-.4,0-.5,0-.2-.2-.8-.4-1.4-.4-.6-.9-1.2-1.4-1.7"/>
      <path id="Path_177" class="st2" d="M566.5,78.5c0-.6.5-1.2.8-1.2s.5.1.6.6c0,.1,0,.2,0,.3,0,.2,0,.4,0,.5h-.4c0,0,0,0,0,0-.1.1-.2.3-.2.5,0,.3,0,.5.2.7-.8-.1-1-.9-1-1.4"/>
      <path id="Path_178" class="st2" d="M567.6,76c-.1.4-.3.8-.4,1.1,0,0-.2,0-.2.1,0,0,0,0,0,0-.1-.2-.3-.3-.6-.3,0,0,0,0,0,0,0-.1-.1-.3-.2-.4,0-.4.2-.8.2-.9,0,0,.2,0,.2-.1.1,0,.3-.1.4-.1.1,0,.2.2.3.4,0,.1.2.3.3.4"/>
      <path id="Path_179" class="st2" d="M565.2,77.7c-.2,0-.3.2-.4.3-.1.2-.2.5-.2.7-.2-.1-.3-.3-.3-.5,0,0,0-.2,0-.3,0-.3,0-.6.2-.9.2-.3.5-.5.9-.6.2,0,.3,0,.5,0,.2,0,.3.2.3.4-.4.1-.8.5-.9.9"/>
      <path id="Path_180" class="st2" d="M566.3,78.3c-.2.1-.3.3-.4.6,0,0,0,.2,0,.3,0,.2,0,.3,0,.5-.2,0-.4-.2-.5-.4-.2-.3-.2-.6-.2-.9,0-.1,0-.2,0-.3,0-.6.7-1.1,1-1,.2,0,.3,0,.4.2,0,0,0,0,0,0-.2.2-.4.6-.5.9"/>
      <path id="Path_181" class="st5" d="M562.5,67.4c.6.6,1.2,1.1,1.9,1.5h-.3c-1.2-.4-2.3-1-3.2-1.8-.1-.2-.2-.3-.2-.6.3.2.6.3.9.5.3.1.6.3.9.4"/>
      <path id="Path_182" class="st5" d="M558.5,62.1c.4,1.1,2,2.6,3.3,3.6-.4-.2-.8-.4-1.2-.6-1.9-.9-3.5-2.3-4.8-4-.7-1.1-1.3-2.5-1.1-2.8,0,0,0,0,.1,0,.8,1.3,1.9,2.4,3.1,3.4.2.1.3.3.5.4"/>
      <path id="Path_183" class="st5" d="M559.8,62.7c-.6-.4-1.1-.8-1.7-1.2-1.2-1-2.2-2.1-3.1-3.4-.8-1.1-1.2-2.4-1.2-3.8,0-.9.1-1.1.2-1.1,0,0,0,0,0,0,.2.6.4,1.1.6,1.6.6,1.2,1.3,2.3,2.2,3.3.3,1.1.9,2.2,1.6,3.1.4.5.8,1,1.2,1.4"/>
      <path id="Path_184" class="st5" d="M560.8,65.5c.5.6,1.1,1.2,1.7,1.7-.3-.1-.6-.3-.9-.4-2-.9-3.5-2-3.8-2.8,0-.1-.1-.3,0-.5.9.7,1.8,1.3,2.7,1.8l.3.2"/>
      <path id="Path_185" class="st5" d="M558.4,59.4c-.3-.3-.6-.6-.9-.9-1.1-1.1-2-2.3-2.6-3.7-.6-1.3-1-2.7-1-4.2v-.2c0-.8,0-1.6.2-2.3,0-.4.2-.7.4-.7,0,0,0,0,.1,0,.1,1.5.5,2.9,1,4.3.1.4.3.7.5,1.1,0,1.4.3,2.8,1,4,.4.9.9,1.7,1.4,2.5"/>
      <path id="Path_186" class="st2" d="M577.7,78.8c0,0,0,.2,0,.3,0,.3,0,.5-.2.8.8-.1,1-.9,1-1.4s-.5-1.2-.8-1.2-.5.1-.6.6c0,.1,0,.2,0,.3,0,.2,0,.4,0,.5h.4c0,0,0,0,0,0,0,0,0,.1.1.2"/>
      <path id="Path_187" class="st2" d="M577.5,76c.1.4.3.8.4,1.1,0,0,.2,0,.2.1,0,0,0,0,0,0,.1-.2.3-.3.6-.3,0,0,0,0,0,0,0-.1.1-.3.2-.4,0-.4-.2-.8-.2-.9,0,0-.2,0-.2-.1-.1,0-.3-.1-.4-.1-.1,0-.2.2-.3.4,0,.1-.2.3-.3.4"/>
      <path id="Path_188" class="st2" d="M579.9,77.7c.2,0,.3.2.4.3.1.2.2.5.2.7.2-.1.3-.3.3-.5,0-.1,0-.2,0-.3,0-.3,0-.6-.2-.9-.2-.3-.5-.5-.9-.6-.2,0-.3,0-.5,0-.2,0-.3.2-.3.4.4.2.8.5.9.9"/>
      <path id="Path_189" class="st2" d="M578.8,78.3c.2.1.3.3.4.6,0,0,0,.2,0,.3,0,.2,0,.3,0,.5.2,0,.4-.2.5-.4.2-.3.2-.6.2-.9,0-.1,0-.2,0-.3,0-.6-.7-1.1-1-1-.2,0-.3,0-.4.2,0,0,0,0,0,0,.2.2.4.6.5.9"/>
      <path id="Path_190" class="st5" d="M582.6,67.4c-.6.6-1.2,1.1-1.9,1.5,0,0,.2,0,.3,0,1.2-.3,2.3-.9,3.2-1.7.1-.2.2-.3.2-.6-.3.2-.6.3-.9.5-.3.1-.6.3-.9.4"/>
      <path id="Path_191" class="st5" d="M586.6,62.1c-.4,1.1-2,2.6-3.3,3.6.4-.2.8-.4,1.2-.6,1.9-.9,3.5-2.3,4.8-4,.7-1.1,1.3-2.5,1.1-2.8,0,0,0,0-.1,0-.8,1.3-1.9,2.4-3.1,3.4-.2.1-.3.3-.5.4"/>
      <path id="Path_192" class="st5" d="M585.3,62.7c.6-.4,1.1-.8,1.7-1.2,1.2-.9,2.2-2.1,3.1-3.4.8-1.1,1.2-2.4,1.2-3.8,0-.9-.1-1.1-.2-1.1,0,0,0,0,0,0-.2.6-.4,1.1-.6,1.6-.6,1.2-1.3,2.3-2.2,3.3-.3,1.1-.9,2.2-1.6,3.1-.4.5-.8,1-1.2,1.4"/>
      <path id="Path_193" class="st5" d="M584.3,65.5c-.5.6-1.1,1.2-1.7,1.7.3-.1.6-.3.9-.4,2-.9,3.5-2,3.8-2.8,0-.1.1-.3,0-.5-.9.7-1.8,1.3-2.7,1.8l-.3.2"/>
      <path id="Path_194" class="st5" d="M586.6,59.4c.3-.3.6-.6.9-.9,1.1-1.1,2-2.3,2.6-3.7.6-1.3,1-2.7,1-4.2v-.2c0-.8,0-1.6-.2-2.3,0-.4-.2-.7-.4-.7,0,0,0,0,0,0-.1,1.5-.5,2.9-1,4.3-.1.4-.3.7-.5,1.1,0,1.4-.3,2.8-1,4-.4.9-.9,1.7-1.4,2.5"/>
      <path id="Path_195" class="st10" d="M572.5,71.7c-1.9,0-3.4,2.3-4.2,3.5-.2.3-.3.5-.5.7-.1,0-.2-.2-.3-.3-.1-.2-.3-.5-.5-.5-.2,0-.4,0-.5.2-.1,0-.3.1-.4.1,0,0,0,0,0,0,0,0,0-.2.2-.8.2-.4.5-1,.8-1.5.5-.7.8-1.5,1-2.3,0-.9-.3-1.2-.3-1.2,0,0,0,0,0,0-.5-.3-.9-.6-1.3-1,.4,0,.7,0,1.1.1l-.2-.2c-.1,0-.2,0-.3,0-.6-.3-1.1-.8-1.5-1.4.5,0,.9.2,1.4.2v-.2c-.2,0-.4,0-.5,0-.7-.4-1.3-1.1-1.6-1.8.5.1,1,.2,1.5.3v-.2c-.3,0-.5,0-.7-.1-.6-.6-1.1-1.3-1.5-2.1.6.3,1.3.5,2,.7v-.2c-.2,0-.5-.2-.7-.2-1-.7-1.7-1.7-2.2-2.8.9.5,1.8,1,2.8,1.4v-.2c-.3-.1-.6-.3-.9-.4-1-1-1.7-2.1-2.2-3.4,1,.9,2.1,1.6,3.3,2.1v-.2c-3.1-1.3-5.5-4.4-6.7-6.2-.9-1.3-1.7-2.8-2.3-4.3-.5-1.1-.7-2.2-.8-3.4,0-1.4.2-2.8.6-4.2.4-1,1.1-1.9,1.9-2.5.3-.2.5-.2.6-.2s0,.2-.1.4c-.8,1.1-1.2,2.4-1.3,3.7-.1,1.3,0,2.6.5,3.8.9,2,2.2,3.7,3.9,5,.2.2.4.4.6.6.1.2.2.5.3.8.3,1,.7,2,1.3,2.8.8,1.1,2.1,1.7,3.5,1.8.7,0,1.5-.3,2-.8.5-.4.8-1.1.8-1.7,0-.5-.3-1.3-1.1-1.3-.4,0-.7.2-.9.5,0-.1,0-.3,0-.4,0-.1,0-.2,0-.3.2-.4.5-.7.9-.9h0s0,0,0,0c.4-.8,1.3-1.3,2.2-1.2.8,0,1.6.4,2.1,1.1.4.7.7,1.5.9,2.4.4,1.4.8,2.8,2.1,2.8,1.4,0,2.6-.7,3.5-1.8.6-.9,1.1-1.8,1.3-2.8,0-.3.2-.5.3-.8.2-.2.4-.4.6-.6,1.7-1.3,3.1-3,3.9-5,.4-1.2.6-2.5.5-3.8,0-1.3-.5-2.6-1.3-3.7-.1-.2-.2-.3-.1-.4s.3,0,.6.2c.9.6,1.6,1.5,1.9,2.5.5,1.3.7,2.8.6,4.2,0,1.2-.4,2.3-.8,3.4-.6,1.5-1.4,2.9-2.3,4.3-1.2,1.8-3.6,4.9-6.8,6.2v.2c1.3-.5,2.4-1.2,3.4-2.1-.5,1.3-1.2,2.4-2.2,3.4-.3.1-.7.3-1,.4v.2c1-.4,2-.8,2.9-1.4-.4,1.1-1.2,2.1-2.2,2.8-.2,0-.5.2-.7.2v.2c.7-.2,1.3-.4,2-.7-.4.8-.8,1.5-1.5,2.1-.2,0-.5,0-.7.1v.2c.5,0,1-.2,1.4-.3-.4.7-.9,1.4-1.6,1.8-.1,0-.3,0-.4,0v.2c.3,0,.8-.1,1.3-.2-.4.6-.9,1-1.5,1.4-.1,0-.2,0-.3,0l-.2.2c.4,0,.7,0,1.1-.1-.4.4-.8.8-1.3,1,0,0,0,0,0,0,0,0-.3.3-.3,1.2.2.8.5,1.6,1,2.3.3.5.6,1.1.8,1.5.3.6.2.8.2.8,0,0,0,0,0,0-.1,0-.3,0-.4-.1-.2,0-.3-.2-.5-.2-.3,0-.4.2-.5.5,0,.2-.2.3-.3.3-.2-.2-.4-.5-.5-.7-.8-1.2-2.3-3.5-4.2-3.5"/>
      <path id="Path_196" class="st10" d="M561.3,59c-1.2-.9-2.2-2-3.2-3.2,0,0,0-.1-.1-.2h0c-.8-1.9-1.2-3.9-1.1-5.9.6,1.4,1.3,2.7,2.1,3.9,0,.1.2.2.3.4.2,1.8.9,3.6,2,5"/>
      <path id="Path_197" class="st10" d="M564.5,68.1c.3.5.8.8,1.3,1.1-.2,0-.3,0-.5-.1-.8-.4-1.6-.9-2.3-1.5.5.2,1,.4,1.5.5"/>
      <path id="Path_198" class="st10" d="M561.9,64.2c.5.9,1.3,1.7,2.1,2.3-.4-.1-.9-.3-1.3-.4-1.6-.9-2.9-2.2-3.9-3.7,1,.7,2,1.3,3.1,1.8"/>
      <path id="Path_199" class="st10" d="M563.1,64.4c-.8-.3-1.5-.7-2.3-1.1-1.6-1.3-2.8-2.9-3.5-4.8,0,0,0,0,.1.1.9,1,2,1.8,3.1,2.6.6,1.2,1.5,2.3,2.6,3.2"/>
      <path id="Path_200" class="st10" d="M563.9,67.7c-1-.5-1.9-1.1-2.6-2,.7.3,1.4.6,2.1.8.4.6.9,1.1,1.5,1.5-.3,0-.7-.2-1-.3"/>
      <path id="Path_201" class="st10" d="M562.1,62c-1-.5-2-1.2-2.9-1.9-.8-1-1.5-2.1-2-3.3-.5-1.1-.8-2.3-.9-3.5.5.9,1,1.8,1.7,2.6.4.6.9,1.1,1.4,1.7.3,1,.8,1.9,1.4,2.8.4.6.8,1.1,1.3,1.6"/>
      <path id="Path_202" class="st10" d="M583.8,59c1.2-.9,2.2-2,3.2-3.2v-.2c.1,0,.1,0,.1,0,.8-1.9,1.2-3.9,1.1-5.9-.6,1.4-1.3,2.7-2.1,3.9,0,.1-.2.2-.3.4-.2,1.8-.9,3.6-2,5"/>
      <path id="Path_203" class="st10" d="M580.6,68.1c-.3.5-.8.8-1.3,1.1.2,0,.3,0,.5-.1.8-.4,1.6-.9,2.3-1.5-.5.2-1,.4-1.5.5"/>
      <path id="Path_204" class="st10" d="M583.2,64.2c-.5.9-1.3,1.7-2.1,2.3.4-.1.9-.3,1.3-.4,1.6-.9,2.9-2.2,3.9-3.7-1,.7-2,1.3-3.1,1.8"/>
      <path id="Path_205" class="st10" d="M582,64.4c.8-.3,1.5-.7,2.3-1.1,1.6-1.3,2.8-2.9,3.5-4.8h-.1c-.9,1.1-2,1.9-3.1,2.7-.6,1.2-1.5,2.3-2.6,3.2"/>
      <path id="Path_206" class="st10" d="M581.2,67.7c1-.5,1.9-1.1,2.6-2-.7.3-1.4.6-2.1.8-.4.6-.9,1.1-1.5,1.5.3,0,.7-.2,1-.3"/>
      <path id="Path_207" class="st10" d="M583,62c1-.5,2-1.2,2.9-1.9.8-1,1.5-2.1,2-3.3.5-1.1.8-2.3.9-3.5-.5.9-1,1.8-1.7,2.6-.4.6-.9,1.1-1.4,1.7-.3,1-.8,1.9-1.4,2.8-.4.6-.8,1.1-1.3,1.6"/>
      <path id="Path_208" class="st7" d="M561.9,59.5c-.6-.8-1.1-1.7-1.6-2.6-.4-.8-.6-1.7-.8-2.5.8,1.1,1.8,2.2,2.8,3.2.4,1.3,1.1,2.4,2,3.4-.8-.4-1.7-.9-2.4-1.5"/>
      <path id="Path_209" class="st7" d="M564.9,68.2c.4,0,.7.2,1.1.3.3.4.7.7,1.1,1-.2,0-.4,0-.6,0-.6-.3-1.2-.7-1.6-1.2"/>
      <path id="Path_210" class="st7" d="M564.3,65.1c.3.7.8,1.3,1.4,1.8-.3,0-.7-.1-1-.2-1-.6-1.8-1.4-2.5-2.4.7.3,1.4.6,2.1.8"/>
      <path id="Path_211" class="st7" d="M565,65c-.4,0-.8-.2-1.3-.4-1.2-.9-2.1-2-2.9-3.2.9.6,1.8,1.1,2.8,1.5.3.8.8,1.5,1.4,2.1"/>
      <path id="Path_212" class="st7" d="M563.7,66.6c.5.1.9.3,1.4.4.3.5.7,1,1.2,1.3-.2,0-.5,0-.7-.1-.7-.4-1.4-.9-1.9-1.6"/>
      <path id="Path_213" class="st7" d="M564.5,63.1c-.6-.2-1.1-.4-1.6-.7-1.4-1.2-2.5-2.7-3.1-4.4.5.5,1.1,1,1.7,1.5.4.3.8.6,1.2.9.4,1.1,1,2,1.8,2.8"/>
      <path id="Path_214" class="st7" d="M583.2,59.5c.6-.8,1.1-1.7,1.6-2.6.4-.8.6-1.7.8-2.5-.8,1.1-1.8,2.2-2.8,3.2-.4,1.3-1.1,2.5-2,3.4.8-.4,1.7-.9,2.4-1.5"/>
      <path id="Path_215" class="st7" d="M580.2,68.2c-.4.1-.7.2-1.1.3-.3.4-.7.7-1.1,1,.2,0,.4,0,.6,0,.6-.3,1.2-.7,1.6-1.2"/>
      <path id="Path_216" class="st7" d="M580.7,65.1c-.3.7-.8,1.3-1.4,1.8.3,0,.7-.1,1-.2,1-.6,1.8-1.4,2.5-2.4-.7.3-1.4.6-2.1.8"/>
      <path id="Path_217" class="st7" d="M580.1,65c.4,0,.8-.2,1.3-.4,1.2-.9,2.1-2,2.9-3.2-.9.6-1.8,1.1-2.8,1.5-.3.8-.8,1.5-1.4,2.1"/>
      <path id="Path_218" class="st7" d="M581.4,66.6c-.5.1-.9.3-1.4.4-.3.5-.7,1-1.2,1.3.2,0,.5,0,.7-.1.7-.4,1.4-.9,1.9-1.6"/>
      <path id="Path_219" class="st7" d="M580.6,63.1c.6-.2,1.1-.4,1.6-.7,1.4-1.2,2.5-2.7,3.1-4.4-.5.5-1.1,1-1.7,1.5-.4.3-.8.6-1.2.9-.4,1.1-1,2-1.8,2.8"/>
      <path id="Path_220" class="st0" d="M572.5,70.1l.6-.6.3.3h0c.9-.2,1.8-.5,2.6-1.1h0v-.5h.8v-.8h.5c.5-.8.9-1.7,1.1-2.6h0c0,0-.3-.4-.3-.4l.6-.6h0c0,0-.5-.6-.5-.6l.3-.3h0c-.2-1-.5-1.8-1.1-2.6h0s-.5,0-.5,0v-.8h-.8v-.5h0c-.8-.6-1.6-.9-2.6-1.1h0s-.3.3-.3.3l-.5-.5h0c0,0,0,0,0,0l-.5.5-.3-.3h0c-.9.2-1.8.5-2.6,1.1h0v.5h-.8v.8h-.5c-.5.8-.9,1.7-1.1,2.6h0c0,0,.3.4.3.4l-.5.5h0c0,0,.6.6.6.6l-.3.3h0c.2,1,.5,1.8,1.1,2.6h0s.2,0,.5,0v.8h.8v.5h0c.8.6,1.6.9,2.5,1.1h0s.3-.3.3-.3l.6.6"/>
      <path id="Path_221" class="st9" d="M568.8,66.8c-1.6-2.1-1.3-5.1.8-6.7,2.1-1.6,5.1-1.3,6.7.8,1.4,1.7,1.4,4.2,0,5.9-.1,0-.3-.1-.4-.1l.7-1.1v-.2c-1.7.5-3.4.7-5.1.4-.8-.1-1.6-.3-2.4-.6h-.1c0,.8.2,1.4.6,1.9-.2,0-.4,0-.6-.2h-.1"/>
      <path id="Path_222" class="st0" d="M571.7,65.2c0,.1,0,.3,0,.4h.1c0,.1,2.8-.9,4.5-.3v-.2c-.3-.8-.8-1.5-1.4-2.3-1-1.3-2.2-2.4-3.7-3.2v.2c.2.4.4.9.5,1.4.1.5.2,1,.2,1.6-.1-.2-.3-.4-.4-.6-.5-.6-1.1-1-1.9-1.2v.2c0,.3.2.7.3,1,.1.9,0,1.9-.5,2.7v.2c.8-.2,1.6-.2,2.3,0"/>
      <path id="Path_223" class="st7" d="M571.8,65c-.7-.2-1.4-.2-2.1,0,.3-.6.5-1.4.5-2.1,0-.2,0-.4,0-.6,0-.3-.1-.6-.3-.9.9.3,1.7,1,2.1,1.9,0,.5,0,1.1-.2,1.6"/>
      <path id="Path_224" class="st7" d="M572.2,63.1c0-.6,0-1.3-.2-1.9-.1-.4-.3-.8-.5-1.2,1.3.7,2.4,1.7,3.3,2.9.5.6,1,1.3,1.4,2-.9-.2-1.9-.2-2.8,0-.5,0-1,.2-1.5.4.2-.8.3-1.6.3-2.3"/>
      <path id="Path_225" class="st7" d="M575.6,66.7c-.4,0-.8,0-1.2.2-.6.3-1.2.3-1.8,0-.6-.3-1.4-.3-2,0-.3.1-.5.2-.8.2-.4-.5-.7-1.1-.7-1.7.8.3,1.5.4,2.3.6,1.6.3,3.2.2,4.8-.3-.1.2-.4.6-.6.9"/>
      <path id="Path_226" class="st7" d="M573.1,68.6c-.2,0-.3,0-.5,0-.6,0-1.1,0-1.6-.3.5-.2,1.1-.2,1.7,0,.2,0,.3.2.5.2"/>
      <path id="Path_227" class="st7" d="M575.6,67.6c-.4.4-1,.7-1.5.9-.5.1-1,0-1.4-.2-.6-.3-1.4-.3-2,0,0,0,0,0,0,0-.2,0-.4-.2-.5-.3.2,0,.5-.1.7-.2.6-.3,1.2-.3,1.8,0,.6.3,1.4.3,2,0,.3-.2.7-.3,1-.2"/>
      <path id="Path_228" class="st7" d="M575.8,67.4c-.5,0-1,0-1.4.2-.6.3-1.2.3-1.8,0-.6-.3-1.4-.3-2,0-.3.2-.6.2-.9.2-.2-.2-.5-.3-.7-.5.5.2,1.1.1,1.6-.2.6-.3,1.2-.3,1.8,0,.6.3,1.4.3,2,0,.5-.3,1.1-.3,1.6,0-.1.1-.2.2-.3.3"/>
      <path id="Path_229" class="st7" d="M572.3,58.9c-1.2,0-2.2.5-3.1,1.3v-1c.7-.5,1.5-.8,2.4-1,0,0,.5.5.7.7"/>
      <path id="Path_230" class="st7" d="M572.3,68.9c-.3.3-.7.7-.7.7-.9-.1-1.7-.5-2.4-1v-1c.9.8,1.9,1.2,3.1,1.3"/>
      <rect id="Rectangle_112" class="st7" x="568.4" y="59.7" width=".6" height=".6"/>
      <rect id="Rectangle_113" class="st7" x="568.4" y="67.4" width=".6" height=".6"/>
      <path id="Path_231" class="st7" d="M567.1,63.5l.4.4-.4.4-.4-.4.4-.4Z"/>
      <path id="Path_232" class="st7" d="M567.8,67.2c-.5-.7-.8-1.5-1-2.4l.7-.7c0,1.2.5,2.3,1.3,3.1h-1"/>
      <path id="Path_233" class="st7" d="M567.5,63.6l-.7-.7c.2-.8.5-1.7,1-2.4h1c-.8.9-1.2,2-1.3,3.1"/>
      <path id="Path_234" class="st7" d="M572.5,58.8l.4-.4-.4-.4c0,0-.3.3-.4.4l.4.4"/>
      <path id="Path_235" class="st7" d="M572.1,69.4l.4-.4.4.4c-.1.1-.3.3-.4.4,0,0-.3-.3-.4-.4"/>
      <path id="Path_236" class="st7" d="M572.8,58.9c1.2,0,2.2.5,3.1,1.3v-1c-.7-.5-1.5-.8-2.4-1l-.7.7"/>
      <path id="Path_237" class="st7" d="M572.8,68.9c.3.3.7.7.7.7.9-.1,1.7-.5,2.4-1v-1c-.9.8-1.9,1.2-3.1,1.3"/>
      <rect id="Rectangle_114" class="st7" x="576.1" y="59.7" width=".6" height=".6"/>
      <rect id="Rectangle_115" class="st7" x="576.1" y="67.4" width=".6" height=".6"/>
      <path id="Path_238" class="st7" d="M578,63.5l-.4.4.4.4.4-.4-.4-.4Z"/>
      <path id="Path_239" class="st7" d="M577.3,67.2c.5-.7.8-1.5,1-2.4l-.7-.7c0,1.2-.5,2.3-1.3,3.1h1"/>
      <path id="Path_240" class="st7" d="M577.5,63.6l.7-.7c-.1-.8-.5-1.7-1-2.4h-1c.8.9,1.2,2,1.3,3.1"/>
      <path id="Path_241" class="st1" d="M581.1,77.9c0,.1,0,.3,0,.4,0,.3-.3.6-.6.8h-.2v-.2c0-.3,0-.5-.2-.8,0,0,0,0,0-.1,0,.5,0,.9-.2,1.3-.2.3-.5.5-.8.5v-.2c0-.2,0-.4,0-.6,0,0,0-.2,0-.2,0-.1,0-.2-.2-.3,0,.3-.1.7-.3,1-.2.4-.6.6-1.1.6v-.2c0-.2.2-.5.2-.8,0-.1,0-.2,0-.3,0,0-.6.1-.6.1-2.9.5-5.8.5-8.7,0,0,0-.5,0-.6-.1,0,0,0,.2,0,.3,0,.3,0,.6.2.8v.2c-.5,0-.9-.2-1.2-.6-.2-.3-.3-.6-.3-1,0,0-.1.2-.2.3,0,0,0,.2,0,.2,0,.2,0,.4.1.6v.2c-.4,0-.7-.2-.9-.5-.2-.4-.3-.9-.2-1.3,0,0,0,0,0,.1-.1.2-.2.5-.2.8h0c0,0-.2.2-.2.2-.3-.2-.5-.4-.6-.8,0-.1,0-.3,0-.4-3.1-1-6-2.6-8.5-4.7-.2.5-1.8,4.5-1.8,4.6,0,.6,2,2.5,5.8,4.3,8.2,4.1,17.9,4.1,26.2,0,3.8-1.8,5.8-3.7,5.8-4.3,0,0-1.6-4-1.8-4.6-2.5,2.1-5.4,3.6-8.5,4.7"/>
      <path id="Path_242" class="st5" d="M555.9,45.9c0,1.2.4,2.4.8,3.5-.1,1.1-.1,2.2.1,3.3.1.7.3,1.5.6,2.2-.6-1-1.2-2-1.6-3.1-.6-1.4-.9-3-1-4.5,0-1,.2-2,.4-2.9.4-1.3.7-1.9.9-2,0,0,0,0,.1,0-.3,1.2-.4,2.4-.4,3.6"/>
      <path id="Path_243" class="st5" d="M589.2,45.9c0,1.2-.4,2.4-.8,3.5.1,1.1.1,2.2-.1,3.3-.1.7-.3,1.5-.6,2.2.6-1,1.2-2,1.6-3.1.6-1.4.9-3,1-4.5,0-1-.2-2-.4-2.9-.4-1.3-.7-1.9-.9-2,0,0,0,0-.1,0,.3,1.2.4,2.4.4,3.6"/>
      <path id="Path_244" class="st4" d="M572.4,36.1v5l-3.7-1.5v-5l3.7,1.5"/>
      <path id="Path_245" class="st4" d="M572.6,41.1v-5l3.7-1.5v5c-.1,0-3.4,1.4-3.7,1.5"/>
      <line id="Line_43" class="st8" x1="556.4" y1="78.2" x2="556.3" y2="78.4"/>
      <path id="Path_246" class="st7" d="M556.6,77.4c0,0,0-.2,0-.3,0,0,0-.2,0-.2,0,0-.1-.1-.2-.2,0,0-.2-.1-.3-.1,0,0-.2,0-.3,0,0,0-.2,0-.2.1,0,0-.2.1-.2.2,0,0-.1.2-.1.3,0,0,0,.2,0,.3,0,0,0,.2.1.3,0,0,.2.2.2.2l.5.3.4-.6c0,0,.1-.2.2-.3M556.4,77.3c0,0,0,.1,0,.2l-.3.5h-.2c-.1-.2-.2-.3-.2-.4,0-.1,0-.3.1-.4,0,0,0-.1.1-.1,0,0,0,0,.1,0,0,0,.1,0,.2,0,0,0,.1,0,.2,0,0,0,0,0,.1.1,0,0,0,0,0,.1,0,0,0,.1,0,.2M556.7,76.7s0,0,.1,0c0,0,0,0,.1,0,0,0,0,0,0-.1,0,0,0,0,0-.1,0,0,0,0-.1,0,0,0,0,0-.1,0,0,0,0,0,0,.1,0,0,0,0,0,.1M556.3,76.4s0,0,.1,0c0,0,0,0,.1,0,0,0,0,0,0-.1,0,0,0,0,0-.1,0,0,0,0-.1,0,0,0,0,0-.1,0,0,0,0,0,0,.1,0,0,0,0,0,.1M560.6,79s0,0,.1,0c0,0,0,0,.1,0,0,0,0,0,0-.1,0,0,0,0,0-.1,0,0,0,0-.1,0,0,0,0,0-.1,0,0,0,0,.1,0,.2,0,0,0,0,0,.1M560.1,78.8s0,0,.1,0c0,0,0,0,.1,0,0,0,0,0,0-.1,0,0,0,0,0-.1,0,0,0,0-.1,0,0,0,0,0-.1,0,0,0,0,0,0,.1,0,0,0,0,0,.1M563,81.9h.3c0,0,.8-2.1.8-2.1,0,0-.2,0-.3,0l-.8,2.2ZM565.2,80.8s.1,0,.1,0c0,0,0,0,0-.1,0,0,0-.1,0-.2,0,0-.2-.1-.3,0,0,0,0,0,0,.1,0,0,0,.1,0,.2,0,0,0,0,.1,0M571.9,81.3v2.3s.2,0,.2,0v-2.3s-.1,0-.2,0M574.3,81.9s0,0,.1,0c0,0,0,0,.1,0,0,0,0,0,0-.1,0,0,0,0,0-.1,0,0,0,0-.1,0,0,0,0,0-.1,0,0,0,0,0,0,.1,0,0,0,.1,0,.1M573.8,81.9s0,0,.1,0c0,0,0,0,.1,0,0,0,0,0,0-.1,0,0,0,0,0-.1,0,0,0,0-.1,0,0,0,0,0-.1,0,0,0,0,0,0,.1,0,0,0,.1,0,.1M574.8,82v1.2c0,0-.4,0-.4,0-.2,0-.3,0-.5,0-.1,0-.2,0-.3-.1,0,0-.1-.1-.2-.2,0,0,0-.2,0-.3,0,0,0-.2,0-.2,0,0,0-.2,0-.2h-.3c0,.2,0,.2,0,.3,0,0,0,.2,0,.2,0,.1,0,.3,0,.4,0,.1.1.2.2.3.1,0,.2.1.4.2.2,0,.4,0,.5,0h.8c0,0,0-1.5,0-1.5h-.3ZM575.5,81.1l.3,2.3h.3s-.3-2.3-.3-2.3c0,0-.2,0-.3,0M576.8,81.7h-.3s.2,1.5.2,1.5c0,.1,0,.3,0,.4,0,0-.2.2-.3.2,0,0,0,0-.1,0v.3c0,0,.1,0,.2,0,.1,0,.2,0,.3-.1,0,0,.1-.1.2-.2,0,0,0-.2,0-.3,0-.1,0-.2,0-.3l-.2-1.4ZM579.6,81.5c0,0-.1-.1-.2-.2,0,0-.1,0-.2,0,0,0-.2,0-.3,0,0,0-.2,0-.3.1,0,0-.1.1-.2.2,0,0,0,.2,0,.3,0,.1,0,.2,0,.4,0,0,0,.1,0,.2,0,0,0,.1,0,.1,0,0,0,0,0,0,0,0,0,0-.1,0h-.4c0,0-.4-1.9-.4-1.9,0,0-.2,0-.3,0l.4,2.2h.6c.1-.1.2-.2.3-.3,0,0,0-.2,0-.2,0,0,.2.1.3.2.1,0,.3,0,.4,0h.6c0-.1-.2-.9-.2-.9,0-.1,0-.2-.1-.3M579.3,82.4c-.1,0-.3,0-.4,0-.1,0-.2-.2-.2-.4,0,0,0-.1,0-.2,0,0,0-.1,0-.2,0-.1.1-.2.2-.2,0,0,.1,0,.2,0,0,0,0,0,.1,0,0,0,0,0,0,.1,0,0,0,.1,0,.2v.5c.1,0,0,0,0,0ZM580.8,79.9h-.3c0,0,.5,1.6.5,1.6,0,0,0,.1,0,.2,0,0,0,.1,0,.2,0,0,0,0-.1.1,0,0-.1,0-.2,0,0,0-.2,0-.2,0,0,0-.2,0-.2,0v.3c.1,0,.2,0,.3,0,0,0,.2,0,.2,0,.1,0,.2,0,.4-.2,0,0,.2-.1.2-.2,0,0,0-.2,0-.3,0,0,0-.2,0-.3l-.5-1.5ZM580.5,81.8l-.5-1.7c0,0-.2,0-.3,0l.5,1.7h.2ZM580.9,82.9s0,0-.1,0c0,0,0,0,0,0,0,0,0,0,0,0,0,0,0,0,0,0h0s0,0,0,0v-.2s0,0,0,0c0,0,0,0,0,0,0,0-.1,0-.2.1,0,0,0,.1,0,.2,0,0,0,0,0,0,0,0,0,0,0,0,0,0,0,0-.1,0,0,0,0,0,0,0v.2c0,0,.6-.2.6-.2v-.2c0,0-.2,0-.2,0ZM581.3,79.7l.8,2.2h.3c0,0-.8-2.3-.8-2.3,0,0-.2,0-.3,0M563,79.4l-.7,1.9-.6-.2.2-.5c0-.1,0-.2,0-.3,0,0,0-.2,0-.3,0,0,0-.1-.1-.2,0,0-.1-.1-.2-.1,0,0-.2,0-.3,0,0,0-.2,0-.3,0,0,0-.2,0-.2.2,0,0-.1.2-.2.3,0,0,0,.1-.1.2,0,0,0,0-.1,0,0,0,0,0-.1,0,0,0,0,0-.1,0-.1,0-.2-.1-.3-.2l.5-1.1h-.3c0-.1-.5.9-.5.9-.2-.1-.4-.2-.6-.3l.2-.4c0-.1.1-.2.1-.4,0-.1,0-.2,0-.3,0,0-.1-.2-.2-.2,0,0-.2-.1-.3-.2,0,0-.1,0-.1,0s0,0-.1,0v.2c-.1,0,0,0,0,0h.1c.2.2.3.3.4.4,0,.2,0,.3,0,.5l-.2.3c-.4-.2-.8-.5-1.2-.7h0c0-.2.1-.3.2-.5,0-.1,0-.3,0-.4,0-.1,0-.3-.1-.4,0-.1-.2-.3-.3-.4l-.2.2c.2.2.3.4.3.6,0,.2,0,.5-.2.7h0c-.3-.2-.6-.4-.8-.5v.2c1.1.8,2.3,1.5,3.6,2.2,0,0,.2,0,.3,0,0,0,.2,0,.2-.1,0,.1,0,.2.1.3,0,.1.2.2.3.2l1.4.6.8-2.1h-.3ZM561.4,81h-.2c-.1-.1-.2-.2-.3-.4,0-.1,0-.3,0-.4,0,0,0-.1,0-.2,0,0,0,0,.1-.1,0,0,0,0,.1,0,.1,0,.2,0,.3.1,0,0,0,0,0,.1,0,0,0,.1,0,.2,0,0,0,.1,0,.2l-.2.5ZM565.7,80.9s.1,0,.1,0c0,0,0,0,0-.1,0,0,0-.1,0-.1,0,0,0,0-.1,0,0,0-.1,0-.1,0,0,0,0,0,0,.1,0,0,0,.1,0,.2,0,0,0,0,.1,0M566.4,83.1s-.1,0-.1,0c0,0,0,0,0,.1,0,0,0,.1,0,.1,0,0,0,0,.1,0,0,0,.1,0,.1,0,0,0,0,0,0-.1,0,0,0-.1,0-.1,0,0,0,0-.1,0M567.5,81.6l-.2,1.2c-.2,0-.5,0-.7-.1l.3-1.2h-.3c0,0-.3,1.1-.3,1.1-.2,0-.5-.1-.7-.2l.3-1.1c0,0-.2,0-.2,0,0,0-.2,0-.2,0-.1,0-.2,0-.3,0-.2,0-.4.1-.5.3-.1.2-.2.4-.2.6,0,.2.1.4.3.5,0,0,.2.1.3.1,0,0,.5.1.9.2.5.1,1.1.3,1.6.4l.3-1.4h-.3ZM565.3,82.3h-.2c-.1,0-.2-.2-.3-.3,0-.2,0-.4,0-.6,0,0,0,0,.1-.1,0,0,.1,0,.2,0,0,0,.2,0,.2,0,0,0,0,0,0,0,0,0,0,0,0,0h0s-.3,1-.3,1ZM567.1,83.3s0,0-.1,0c0,0,0,0,0,.1,0,0,0,0,0,.1,0,0,0,0,.1,0,0,0,0,0,.1,0,0,0,0,0,0-.1,0,0,0,0,0-.1,0,0,0,0-.1,0M566,83s-.1,0-.1,0c0,0-.1.2,0,.3,0,0,.2.1.3,0,0,0,0,0,0,0,0,0,0,0,0-.1,0,0,0-.1,0-.1,0,0,0,0-.1,0M583.1,79.7s0,0,0-.1c0,0,0-.1,0-.1,0,0,0,0-.1-.1,0,0-.2,0-.2,0,0,0,0,0,0,0,0,0,0,.1,0,.1,0,0,0,0,.1.1,0,0,0,0,.1,0M583.4,79.5s.1,0,.2,0c0,0,0,0,0-.1,0,0,0-.1,0-.1,0,0,0,0,0-.1,0,0,0,0-.1,0,0,0,0,0,0,0,0,0,0,.1,0,.1,0,0,0,0,.1.1M589.4,78.1s0,0-.1,0c0,0,0,.2,0,.3,0,0,0,0,.1,0,0,0,.1,0,.1,0,0,0,0,0,0-.1,0-.1,0-.2-.2-.2M589.3,77c0-.1-.2-.2-.3-.2,0,0-.2,0-.3,0-.1,0-.2,0-.3,0,0,0-.2.1-.3.2,0,0,0,0-.1.1s0,0,0,0v.2c.2,0,.2,0,.2,0s0,0,.1,0c.1-.1.3-.2.5-.2.2,0,.3.1.4.2l.2.3-1.1.9-1.2-1.7c0,0-.2.1-.2.2l1.3,1.9,1.6-1.2-.4-.5ZM587.1,78.2c0,0-.1-.1-.2-.1,0,0-.2,0-.2,0,0,0-.2,0-.2,0,0,0-.2.1-.2.2,0,0,0,.2-.1.2,0,0,0,.2,0,.3,0,.1,0,.2.1.3,0,0,0,.1,0,.2,0,0,0,0,0,.1,0,0,0,0,0,.1,0,0,0,0-.1,0,0,0-.2,0-.3,0,0,0-.2,0-.2,0,0-.1,0-.2,0-.4,0-.1,0-.2,0-.3,0,0,0-.1-.1-.2,0,0-.1,0-.2,0,0,0-.2,0-.2,0,0,0-.2,0-.3,0-.1,0-.2.1-.3.3,0,.1-.2.2-.2.3v.3h.3c0,0,.1,0,.2,0,0,0,.1,0,.2,0s.1,0,.2,0c-.1.2-.3.3-.5.4,0,0-.2.1-.4.2l-.5-1.1c0,0-.2,0-.2,0,0,0-.2,0-.2,0,0,0-.2.1-.3.2,0,0-.1.2-.2.2,0,0,0,.2,0,.3,0,.1,0,.2,0,.3,0,0,0,.2.2.2,0,0,.1.1.2.1,0,0,.2,0,.3,0,.1,0,.2,0,.3,0,.5-.2.8-.3.9-.4.1,0,.2-.2.3-.3.1-.1.2-.2.3-.3.1,0,.2,0,.4,0,.1,0,.3,0,.4-.1.1,0,.2-.1.3-.3,0,0,0-.2,0-.3,0,0,.2,0,.3,0,.1,0,.3,0,.4-.1l.5-.3-.4-.6c0,0-.1-.2-.2-.3M583.9,80.9c-.1,0-.3,0-.4,0-.1,0-.2-.2-.3-.3,0-.1,0-.2,0-.4,0,0,0-.1,0-.1,0,0,0,0,.1,0h0s0,0,0,0c0,0,0,0,0,0h0s.4.9.4.9h-.2ZM585.5,79.6c0,0,0,.2,0,.3-.1,0-.3-.1-.4-.2-.1,0-.3,0-.4,0,0,0,0-.2.2-.2,0,0,.1-.1.2-.2,0,0,.2,0,.3,0,0,0,.2,0,.2.1,0,0,0,.1,0,.2M587.1,79.2c-.1,0-.2.1-.4,0-.1,0-.2-.1-.3-.3,0,0,0-.1,0-.2,0,0,0-.1,0-.2,0,0,0-.1,0-.1,0,0,0,0,.1-.1,0,0,0,0,.1,0,0,0,.1,0,.1,0,0,0,0,0,.1,0,0,0,0,0,.1.1l.3.5h-.2ZM571,83.3c-.2,0-.4,0-.6,0,0,0-.1,0-.2-.1.1,0,.2-.2.3-.3,0,0,0-.2.1-.3,0,0,0-.1,0-.2,0,0,0-.1,0-.2,0,0-.1-.1-.2-.1,0,0-.2,0-.3,0-.1,0-.3,0-.4,0-.1,0-.3,0-.4.2v.3s0,0,.1.1c0,0,.1,0,.1.1,0,0,0,0,.1.2s0,.1.1.2c0,0-.2,0-.3,0-.3,0-.6,0-.9,0l.2-1.2h-.3s-.2,1.4-.2,1.4c0,.1,0,.2-.2.3,0,0-.2,0-.3,0,0,0,0,0-.1,0v.3s0,0,0,0c.1,0,.2,0,.3,0,0,0,.2,0,.2-.1,0,0,.1-.1.2-.2,0,0,0-.2,0-.3h0c.3,0,.6,0,.9,0,.2,0,.3,0,.4-.1,0,0,.2.1.3.2.2,0,.4.1.7.1h.4s.1-2.3.1-2.3h-.3s-.1,2-.1,2ZM570,82.9c0-.1-.2-.3-.3-.4,0,0-.2-.2-.3-.2,0,0,.2,0,.3-.1,0,0,.2,0,.3,0,0,0,.2,0,.3.1,0,0,0,.1,0,.2,0,0,0,.1,0,.2,0,0-.1.1-.2.2"/>
      <path id="Path_247" class="st0" d="M571.4,52.3c-.3,0-.7,0-1,.2v.2c0,0,.1,0,.2,0,0,.2.2.4.4.4.2,0,.3,0,.7-.5.3,0,.6,0,.6,0v-.2c-.3,0-.7,0-1,0"/>
    </g>
  </g>
</svg>